<svg width="116" height="116" viewBox="0 0 116 116" fill="none" xmlns="http://www.w3.org/2000/svg">
<path d="M110.074 84.0039V31.8636C110.074 27.0551 106.193 23.1735 101.384 23.1735H20.2189C15.4104 23.1735 11.5288 27.0551 11.5288 31.8636V84.0039C11.5288 88.8124 15.4104 92.694 20.2189 92.694H101.384C106.193 92.694 110.074 88.8124 110.074 84.0039ZM102.485 31.2263C104.397 33.1381 103.354 35.1078 102.311 36.0927L78.7899 57.6441L101.384 81.1652C102.079 81.9762 102.543 83.2508 101.732 84.1198C100.979 85.0467 99.2405 84.9888 98.4874 84.4095L73.1703 62.8002L60.7725 74.0973L48.4326 62.8002L23.1156 84.4095C22.3624 84.9888 20.6244 85.0467 19.8713 84.1198C19.0602 83.2508 19.5237 81.9762 20.2189 81.1652L42.813 57.6441L19.2919 36.0927C18.2491 35.1078 17.2063 33.1381 19.1181 31.2263C21.0299 29.3145 22.9997 30.2414 24.6218 31.6318L60.7725 60.8304L96.9811 31.6318C98.6032 30.2414 100.573 29.3145 102.485 31.2263Z" fill="white"/>
</svg>
