<svg width="107" height="108" viewBox="0 0 107 108" fill="none" xmlns="http://www.w3.org/2000/svg">
<path d="M100.04 54.1067C100.04 41.7459 95.1301 29.8914 86.3897 21.151C77.6493 12.4106 65.7948 7.50028 53.434 7.50028C41.6981 7.48944 30.3902 11.9065 21.7689 19.8692C13.1477 27.8319 7.84778 38.754 6.92795 50.4537C6.00811 62.1535 9.53603 73.7696 16.807 82.9817C24.078 92.1939 34.5567 98.3238 46.1501 100.147V67.5759H34.3254V54.1067H46.1568V43.84C46.1568 32.1617 53.1144 25.7034 63.7607 25.7034C68.8607 25.7034 74.1938 26.6156 74.1938 26.6156V38.0874H68.3148C62.5223 38.0874 60.7246 41.6827 60.7246 45.3646V54.1067H73.6479L71.5839 67.5759H60.7179V100.147C71.6805 98.4112 81.6638 92.8204 88.8721 84.3806C96.0804 75.9408 100.041 65.2058 100.04 54.1067Z" fill="white"/>
</svg>
