<svg width="238" height="35" viewBox="0 0 238 35" fill="none" xmlns="http://www.w3.org/2000/svg">
<path d="M6.12781 34V21.52H18.6558V16.864H6.12781V5.77601H21.1998V1.12001H0.799805V34H6.12781Z" fill="#FFD600"/>
<path d="M38.1581 34.528C35.6621 34.528 33.5661 34.192 31.8701 33.52C30.1741 32.848 28.7981 31.824 27.7421 30.448C26.6861 29.072 25.9181 27.328 25.4381 25.216C24.9901 23.104 24.7661 20.608 24.7661 17.728C24.7661 14.848 25.0061 12.336 25.4861 10.192C25.9661 8.01601 26.7341 6.22401 27.7901 4.81601C28.8461 3.40801 30.2221 2.35201 31.9181 1.64801C33.6141 0.94401 35.6941 0.59201 38.1581 0.59201C40.6221 0.59201 42.7021 0.94401 44.3981 1.64801C46.0941 2.32001 47.4701 3.37601 48.5261 4.81601C49.5821 6.22401 50.3341 8.00001 50.7821 10.144C51.2621 12.288 51.5021 14.816 51.5021 17.728C51.5021 20.192 51.3261 22.464 50.9741 24.544C50.6541 26.592 49.9981 28.368 49.0061 29.872C48.0461 31.344 46.6861 32.496 44.9261 33.328C43.1981 34.128 40.9421 34.528 38.1581 34.528ZM31.9181 27.04C33.0381 28.928 35.1181 29.872 38.1581 29.872C39.6941 29.872 40.9581 29.648 41.9501 29.2C42.9741 28.752 43.7741 28.048 44.3501 27.088C44.9581 26.096 45.3741 24.832 45.5981 23.296C45.8541 21.76 45.9821 19.904 45.9821 17.728C45.9821 15.552 45.8541 13.68 45.5981 12.112C45.3421 10.512 44.9101 9.21601 44.3021 8.22401C43.7261 7.20001 42.9261 6.44801 41.9021 5.96801C40.9101 5.48801 39.6621 5.24801 38.1581 5.24801C36.6541 5.24801 35.3901 5.48801 34.3661 5.96801C33.3741 6.44801 32.5741 7.20001 31.9661 8.22401C31.3581 9.24801 30.9261 10.544 30.6701 12.112C30.4141 13.648 30.2861 15.504 30.2861 17.68C30.2861 22.064 30.8301 25.184 31.9181 27.04Z" fill="#FFD600"/>
<path d="M69.6581 34.528C67.1621 34.528 65.066 34.192 63.37 33.52C61.674 32.848 60.2981 31.824 59.2421 30.448C58.1861 29.072 57.4181 27.328 56.9381 25.216C56.4901 23.104 56.2661 20.608 56.2661 17.728C56.2661 14.848 56.5061 12.336 56.9861 10.192C57.4661 8.01601 58.2341 6.22401 59.2901 4.81601C60.3461 3.40801 61.7221 2.35201 63.4181 1.64801C65.1141 0.94401 67.1941 0.59201 69.6581 0.59201C72.1221 0.59201 74.2021 0.94401 75.8981 1.64801C77.5941 2.32001 78.9701 3.37601 80.0261 4.81601C81.0821 6.22401 81.8341 8.00001 82.2821 10.144C82.7621 12.288 83.0021 14.816 83.0021 17.728C83.0021 20.192 82.8261 22.464 82.4741 24.544C82.1541 26.592 81.4981 28.368 80.5061 29.872C79.5461 31.344 78.186 32.496 76.426 33.328C74.698 34.128 72.4421 34.528 69.6581 34.528ZM63.4181 27.04C64.5381 28.928 66.6181 29.872 69.6581 29.872C71.1941 29.872 72.4581 29.648 73.4501 29.2C74.4741 28.752 75.2741 28.048 75.8501 27.088C76.4581 26.096 76.8741 24.832 77.0981 23.296C77.3541 21.76 77.4821 19.904 77.4821 17.728C77.4821 15.552 77.3541 13.68 77.0981 12.112C76.8421 10.512 76.4101 9.21601 75.8021 8.22401C75.2261 7.20001 74.4261 6.44801 73.4021 5.96801C72.4101 5.48801 71.1621 5.24801 69.6581 5.24801C68.1541 5.24801 66.8901 5.48801 65.8661 5.96801C64.8741 6.44801 64.0741 7.20001 63.4661 8.22401C62.8581 9.24801 62.4261 10.544 62.1701 12.112C61.9141 13.648 61.786 15.504 61.786 17.68C61.786 22.064 62.3301 25.184 63.4181 27.04Z" fill="#FFD600"/>
<path d="M100.582 34H89.2061V1.12001H100.582C103.11 1.12001 105.222 1.44001 106.918 2.08001C108.614 2.68801 109.958 3.64801 110.95 4.96001C111.974 6.27201 112.694 7.92001 113.11 9.90401C113.526 11.888 113.734 14.256 113.734 17.008C113.734 19.44 113.574 21.696 113.254 23.776C112.934 25.856 112.31 27.648 111.382 29.152C110.454 30.656 109.126 31.84 107.398 32.704C105.67 33.568 103.398 34 100.582 34ZM108.214 17.008C108.214 15.024 108.102 13.328 107.878 11.92C107.686 10.512 107.302 9.36001 106.726 8.46401C106.15 7.53601 105.366 6.86401 104.374 6.44801C103.382 6.00001 102.118 5.77601 100.582 5.77601H94.534V29.296H100.582C102.406 29.296 103.83 28.928 104.854 28.192C105.878 27.424 106.63 26.464 107.11 25.312C107.622 24.128 107.926 22.816 108.022 21.376C108.15 19.904 108.214 18.448 108.214 17.008Z" fill="#FFD600"/>
<path d="M144.868 34V1.12001H139.492V15.136H125.284V1.12001H119.956V34H125.284V19.792H139.492V34H144.868Z" fill="#FFD600"/>
<path d="M157.482 1.12001V23.488C157.482 27.744 159.722 29.872 164.202 29.872C168.682 29.872 170.922 27.744 170.922 23.488V1.12001H176.298V23.392C176.298 27.264 175.29 30.096 173.274 31.888C171.258 33.648 168.234 34.528 164.202 34.528C160.138 34.528 157.098 33.648 155.082 31.888C153.098 30.096 152.106 27.264 152.106 23.392V1.12001H157.482Z" fill="#FFD600"/>
<path d="M188.94 34V5.77601H189.612L199.836 34H208.956V1.12001H203.628V29.296H202.908L192.924 1.12001H183.612V34H188.94Z" fill="#FFD600"/>
<path d="M222.711 5.87201V34H228.087V5.87201H237.351V1.12001H213.351V5.87201H222.711Z" fill="#FFD600"/>
</svg>
