<svg width="115" height="116" viewBox="0 0 115 116" fill="none" xmlns="http://www.w3.org/2000/svg">
<path fill-rule="evenodd" clip-rule="evenodd" d="M42.1907 101.168C78.2999 101.168 98.0587 69.8657 98.0587 42.7664C98.0587 41.8857 98.0587 41.0051 98.0205 40.1245C101.85 37.2424 105.181 33.5998 107.823 29.4769C104.3 31.1181 100.509 32.1989 96.5272 32.7192C100.586 30.1974 103.688 26.1545 105.181 21.3511C101.39 23.7128 97.1779 25.394 92.6976 26.3146C89.0982 22.3118 84.0055 19.83 78.3764 19.83C67.5398 19.83 58.7328 29.0366 58.7328 40.3646C58.7328 41.9658 58.9242 43.5269 59.2304 45.048C42.9182 44.2074 28.4439 36.0015 18.756 23.5927C17.0712 26.6349 16.1139 30.1574 16.1139 33.9201C16.1139 41.0452 19.5985 47.3296 24.8445 51.0121C21.6279 50.892 18.6029 49.9714 15.9607 48.4504C15.9607 48.5304 15.9607 48.6107 15.9607 48.7308C15.9607 58.6578 22.7384 66.9835 31.6987 68.8648C30.0522 69.3452 28.329 69.5853 26.5293 69.5853C25.2657 69.5853 24.0404 69.4653 22.8533 69.2251C25.3422 77.3909 32.6177 83.3152 41.1951 83.4755C34.4558 88.9993 25.9932 92.2815 16.8032 92.2815C15.2332 92.2815 13.6632 92.2016 12.1315 92.0016C20.7855 97.7655 31.1244 101.168 42.1907 101.168Z" fill="white"/>
</svg>
