<svg width="116" height="116" viewBox="0 0 116 116" fill="none" xmlns="http://www.w3.org/2000/svg">
<path fill-rule="evenodd" clip-rule="evenodd" d="M56.7292 19.5418C51.9595 19.5579 33.7152 19.6928 20.9706 20.6465C18.9055 20.9002 14.4057 20.9194 10.3905 25.2707C7.22293 28.5814 6.19503 36.1086 6.19503 36.1086C6.19503 36.1086 5.22923 44.2041 5.1454 52.6462V63.192C5.22923 71.6344 6.19503 79.7298 6.19503 79.7298C6.19503 79.7298 7.22293 87.2541 10.3905 90.5678C14.4057 94.9191 19.6849 94.7808 22.0357 95.2339C29.762 96.0012 53.3911 96.2839 57.3598 96.3256H59.3226C64.4057 96.2969 82.3271 96.1332 94.8918 95.1921C96.9568 94.9383 101.457 94.9191 105.472 90.5678C108.639 87.2541 109.667 79.7298 109.667 79.7298C109.667 79.7298 110.723 70.8958 110.723 62.0618V53.7768C110.723 44.9395 109.667 36.1086 109.667 36.1086C109.667 36.1086 108.639 28.5814 105.472 25.2707C101.457 20.9194 96.9568 20.9002 94.8918 20.6465C82.1471 19.6928 63.9028 19.5579 59.1297 19.5418H56.7292ZM47.025 41.4256L75.5576 56.8208L47.0312 72.1138L47.025 41.4256Z" fill="white"/>
</svg>
